<svg width="166" height="160" viewBox="0 0 166 160" fill="none" xmlns="http://www.w3.org/2000/svg">
<path d="M31.8389 56.3915C31.8389 58.5411 33.6585 60.2915 35.8933 60.2915H46.7051C48.9398 60.2915 50.7595 58.5411 50.7595 56.3915V51.1915C50.7595 50.4741 50.1538 49.8915 49.408 49.8915H33.1903C32.4446 49.8915 31.8389 50.4741 31.8389 51.1915V56.3915Z" fill="black"/>
<path d="M83.1949 45.0973C83.1949 43.4514 82.0691 41.9865 80.3254 41.3667C79.0886 40.9256 77.9218 40.2791 76.8876 39.4724C75.5977 40.3058 74.0495 40.7921 72.3831 40.7921C70.6913 40.7921 69.0673 40.2768 67.7096 39.3552C65.5376 42.5622 61.7848 44.6921 57.5169 44.6921C53.249 44.6921 49.4961 42.5622 47.3242 39.3552C45.9691 40.2768 44.3449 40.7921 42.6507 40.7921C40.9843 40.7921 39.4362 40.3058 38.1462 39.4735C37.1121 40.2779 35.9452 40.9268 34.7083 41.3678C32.9647 41.9876 31.8389 43.4536 31.8389 45.0973V47.5313C32.2636 47.3862 32.7149 47.2922 33.1903 47.2922H49.408C51.6428 47.2922 53.4624 49.0425 53.4624 51.1922V64.1922C53.4624 66.3418 55.2821 68.0922 57.5169 68.0922C59.7516 68.0922 61.5713 66.3418 61.5713 64.1922V51.1922C61.5713 49.0425 63.3909 47.2922 65.6257 47.2922H81.8434C82.3188 47.2922 82.7701 47.3862 83.1949 47.5313L83.1949 45.0973Z" fill="#FFEC44"/>
<path d="M71.0305 108.392C71.0305 105.894 72.8694 103.807 75.3141 103.308C75.179 102.852 75.0849 102.381 75.0849 101.892C75.0849 100.385 75.7642 99.0389 76.8309 98.0882L74.1147 97.3639C72.4869 98.7347 67.6409 101.892 57.5158 101.892C47.3907 101.892 42.5446 98.7346 40.9169 97.3639L38.2007 98.0882C39.2674 99.0388 39.9467 100.385 39.9467 101.892C39.9467 102.381 39.8526 102.852 39.7175 103.308C42.1622 103.807 44.0011 105.894 44.0011 108.392C44.0011 108.88 43.907 109.352 43.7718 109.808C46.2166 110.307 48.0554 112.394 48.0554 114.892C50.7789 114.892 53.0137 116.843 53.3841 119.365C54.6982 118.998 56.0822 118.792 57.5158 118.792C58.9493 118.792 60.3333 118.998 61.6474 119.365C62.0179 116.843 64.2526 114.892 66.9761 114.892C66.9761 112.394 68.815 110.307 71.2597 109.808C71.1246 109.352 71.0304 108.88 71.0304 108.392H71.0305Z" fill="#FFEC44"/>
<path d="M65.6239 49.8932C64.8782 49.8932 64.2725 50.4759 64.2725 51.1932V56.3932C64.2725 58.5429 66.0921 60.2932 68.3269 60.2932H79.1387C81.3734 60.2932 83.1931 58.5429 83.1931 56.3932V51.1932C83.1931 50.4759 82.5874 49.8932 81.8416 49.8932H65.6239Z" fill="black"/>
<path d="M66.9774 117.493C65.4871 117.493 64.2744 118.66 64.2744 120.093C64.2744 120.186 64.2877 120.285 64.3058 120.386C65.5088 120.982 66.6105 121.733 67.595 122.61C68.7981 122.344 69.6802 121.319 69.6802 120.093C69.6802 118.66 68.4675 117.493 66.9772 117.493L66.9774 117.493Z" fill="#BBBE11"/>
<path d="M34.5418 99.2903C33.0516 99.2903 31.8389 100.457 31.8389 101.89C31.8389 103.324 33.0516 104.49 34.5418 104.49C34.7373 104.49 34.9497 104.453 35.1801 104.393C35.6001 104.06 36.061 103.775 36.5738 103.576C37.001 103.103 37.2448 102.518 37.2448 101.89C37.2448 100.457 36.032 99.2903 34.5418 99.2903Z" fill="#BBBE11"/>
<path d="M43.4973 117.321C43.9293 116.666 44.5073 116.114 45.1891 115.698C45.2868 115.431 45.3532 115.161 45.3532 114.891C45.3532 113.457 44.1404 112.291 42.6502 112.291C41.16 112.291 39.9473 113.457 39.9473 114.891C39.9473 116.596 41.7476 117.899 43.4972 117.321H43.4973Z" fill="#BBBE11"/>
<path d="M57.5182 144.792C64.2262 144.792 69.6815 139.544 69.6815 133.092C69.6815 126.639 64.2262 121.392 57.5182 121.392C50.8103 121.392 45.355 126.639 45.355 133.092C45.355 139.544 50.8103 144.792 57.5182 144.792ZM64.2756 131.792H66.9786V134.392H64.2756V131.792ZM53.4638 134.392H56.1668V135.692C56.1668 136.409 56.7725 136.992 57.5182 136.992C58.264 136.992 58.8697 136.409 58.8697 135.692C58.8697 134.974 58.264 134.392 57.5182 134.392C55.2835 134.392 53.4638 132.641 53.4638 130.492C53.4638 128.8 54.5981 127.369 56.1668 126.831V123.992H58.8697V126.831C60.4384 127.37 61.5727 128.8 61.5727 130.492V131.792H58.8697V130.492C58.8697 129.774 58.264 129.192 57.5182 129.192C56.7725 129.192 56.1668 129.774 56.1668 130.492C56.1668 131.209 56.7725 131.792 57.5182 131.792C59.753 131.792 61.5727 133.542 61.5727 135.692C61.5727 137.384 60.4384 138.814 58.8697 139.353V142.192H56.1668V139.353C54.5981 138.814 53.4638 137.384 53.4638 135.692V134.392ZM50.7609 131.792V134.392H48.0579V131.792H50.7609Z" fill="#BBBE11"/>
<path d="M38.5945 110.992C38.79 110.992 39.0024 110.954 39.2329 110.894C39.6528 110.561 40.1138 110.277 40.6266 110.077C41.0537 109.605 41.2975 109.02 41.2975 108.392C41.2975 106.958 40.0848 105.792 38.5945 105.792C37.1043 105.792 35.8916 106.958 35.8916 108.392C35.8916 109.825 37.1043 110.992 38.5945 110.992V110.992Z" fill="#BBBE11"/>
<path d="M12.0105 56.3294L13.2449 57.063L12.3978 58.1935C10.4599 60.7807 10.0581 64.0725 11.3178 66.9987C12.58 69.9261 15.2842 71.9795 18.5531 72.49L19.9854 72.714L19.6524 74.0732C18.8934 77.1756 19.8285 80.3655 22.1574 82.6056C24.4887 84.847 27.8071 85.75 31.0277 85.0153L32.4395 84.6949L32.6724 86.0727C33.2034 89.2171 35.338 91.8183 38.3811 93.0324C38.877 93.2297 39.4043 93.3771 39.9473 93.4886V85.9833C33.3892 81.1304 29.1355 73.5289 29.1355 64.9732V45.0982C29.1355 42.3543 30.9552 39.9306 33.7679 38.9301C34.6222 38.626 35.4307 38.1861 36.1656 37.6545C35.1507 36.3533 34.5414 34.7434 34.5414 32.9929H37.2443C37.2443 35.861 39.6685 38.1929 42.6502 38.1929C43.9245 38.1929 45.1299 37.7472 46.0939 36.9753C45.6233 35.731 45.353 34.3927 45.353 32.993H48.056C48.056 38.0097 52.301 42.093 57.5163 42.093C62.7316 42.093 66.9766 38.0097 66.9766 32.993H69.6796C69.6796 34.3916 69.4093 35.7299 68.9387 36.9732C69.904 37.7451 71.1095 38.1931 72.3824 38.1931C75.3641 38.1931 77.7883 35.8612 77.7883 32.9931H80.4912C80.4912 34.7435 79.8819 36.3535 78.8683 37.6556C79.6031 38.1872 80.4104 38.626 81.2659 38.9312C84.0775 39.9329 85.8971 42.3543 85.8971 45.0982V64.1932C85.8971 72.8415 81.6616 80.55 75.0853 85.5563V93.4873C75.6295 93.3759 76.1556 93.2296 76.6515 93.0311C79.6948 91.817 81.8295 89.2158 82.3602 86.0714L82.593 84.6937L84.0049 85.014C87.228 85.7476 90.5463 84.8446 92.8752 82.6044C95.204 80.363 96.1403 77.1747 95.3802 74.0719L95.0472 72.7139L96.4795 72.4899C99.7484 71.9791 102.453 69.9258 103.715 66.9987C104.976 64.0725 104.573 60.7806 102.635 58.1934L101.788 57.0629L103.022 56.3293C105.839 54.6532 107.52 51.7631 107.52 48.5932C107.52 45.4232 105.838 42.5329 103.022 40.8571L101.788 40.1235L102.635 38.9929C104.573 36.4057 104.975 33.114 103.715 30.1877C102.453 27.2604 99.7484 25.207 96.4795 24.6965L95.0472 24.4725L95.3802 23.1144C96.1392 20.012 95.204 16.8221 92.8752 14.582C90.5451 12.3418 87.2292 11.4424 84.0049 12.1723L82.593 12.4927L82.3602 11.1149C81.8292 7.97054 79.6946 5.36934 76.6515 4.15522C73.6035 2.94228 70.1861 3.33228 67.4977 5.19406L66.3224 6.00888L65.5597 4.82147C63.8161 2.1112 60.8115 0.493286 57.5161 0.493286C54.2206 0.493286 51.2159 2.11132 49.4736 4.82028L48.711 6.0077L47.5357 5.19287C44.8472 3.32993 41.4277 2.94225 38.3818 4.15403C35.3386 5.36813 33.2039 7.96935 32.6732 11.1137L32.4403 12.4915L31.0273 12.1711C27.8054 11.441 24.4871 12.3406 22.157 14.5808C19.8269 16.8221 18.8918 20.0105 19.6519 23.1132L19.985 24.4713L18.5527 24.6953C15.2838 25.206 12.5796 27.2593 11.3174 30.1865C10.0564 33.1127 10.4595 36.4045 12.3974 38.9917L13.2445 40.1223L12.01 40.8559C9.19366 42.5331 7.51172 45.4232 7.51172 48.5932C7.51172 51.7631 9.19425 54.6535 12.0105 56.3294Z" fill="black"/>
<path d="M47.4385 122.607C48.422 121.731 49.5249 120.98 50.7278 120.383C50.7447 120.282 50.7579 120.184 50.7579 120.091C50.7579 118.657 49.5452 117.491 48.055 117.491C46.5648 117.491 45.3521 118.657 45.3521 120.091C45.3521 121.316 46.2341 122.341 47.4384 122.607L47.4385 122.607Z" fill="#BBBE11"/>
<path d="M100.191 104.321L85.6593 100.443C85.8005 100.907 85.8994 101.387 85.8994 101.893C85.8994 104.39 84.0605 106.477 81.6158 106.976C81.7509 107.429 81.8451 107.898 81.8451 108.392C81.8451 110.89 80.0061 112.977 77.5614 113.476C77.6966 113.929 77.7907 114.398 77.7907 114.892C77.7907 117.76 75.3665 120.092 72.3848 120.092C72.3848 122.082 71.2168 123.794 69.5009 124.663C71.3048 127.03 72.3848 129.939 72.3848 133.092C72.3848 140.977 65.7155 147.392 57.5186 147.392C49.3217 147.392 42.6524 140.977 42.6524 133.092C42.6524 129.939 43.7324 127.03 45.5363 124.663C43.8204 123.794 42.6524 122.082 42.6524 120.092C39.6707 120.092 37.2465 117.76 37.2465 114.892C37.2465 114.398 37.3406 113.929 37.4758 113.476C35.031 112.977 33.1921 110.89 33.1921 108.392C33.1921 107.898 33.2863 107.429 33.4214 106.976C30.9767 106.477 29.1378 104.39 29.1378 101.893C29.1378 101.387 29.2367 100.907 29.3767 100.444L14.8447 104.322L19.3841 115.237C21.3715 120.018 22.3803 125.055 22.3803 130.202V159.093H92.6569V130.202C92.6569 125.055 93.6657 120.018 95.6531 115.235L100.191 104.321Z" fill="black"/>
<path d="M12.2229 105.019L11.6473 105.172C5.23503 106.884 0.755859 112.55 0.755859 118.952V144.791H19.6765V130.201C19.6765 125.384 18.7329 120.674 16.8734 116.198L12.2229 105.019Z" fill="#FFEC44"/>
<path d="M0.754883 147.392H19.6755V159.092H0.754883V147.392Z" fill="#FFEC44"/>
<path d="M95.3599 147.392H114.28V159.092H95.3599V147.392Z" fill="#FFEC44"/>
<path d="M103.385 105.174L102.81 105.021L98.1605 116.202C96.301 120.676 95.3574 125.386 95.3574 130.202V144.792H114.278V118.954C114.278 112.551 109.799 106.886 103.385 105.174L103.385 105.174Z" fill="#FFEC44"/>
<path d="M56.7057 91.4933C51.5689 91.4933 46.7725 90.1098 42.6504 87.7466V95.3669C43.7521 96.3071 47.9973 99.2936 57.5166 99.2936C67.0217 99.2936 71.268 96.3174 72.3828 95.3681V87.3684C68.0195 89.9661 62.8901 91.4936 57.3838 91.4936L56.7057 91.4933Z" fill="#FFEC44"/>
<path d="M31.8389 64.9702C31.8389 78.1607 42.9932 88.8902 56.706 88.8902H57.3841C71.6168 88.8902 83.195 77.81 83.195 64.1902V61.5565C82.0619 62.3818 80.6682 62.8902 79.1405 62.8902H68.3288C66.8011 62.8902 65.4074 62.3818 64.2743 61.5565V64.1902C64.2743 67.7743 61.2432 70.6902 57.517 70.6902C53.7908 70.6902 50.7596 67.7745 50.7596 64.1902V61.5565C49.6265 62.3818 48.2328 62.8902 46.7052 62.8902H35.8934C34.3657 62.8902 32.972 62.3818 31.839 61.5565L31.8389 64.9702ZM46.3671 73.6257C49.198 76.7165 53.262 78.4902 57.5169 78.4902C61.7718 78.4902 65.8358 76.7166 68.6666 73.6257L70.6938 75.3447C67.3502 78.9963 62.5488 81.0903 57.517 81.0903C52.4852 81.0903 47.6839 78.9963 44.3402 75.3447L46.3671 73.6257Z" fill="#FFEC44"/>
<path d="M71.5366 117.321C73.2875 117.899 75.0866 116.596 75.0866 114.891C75.0866 113.457 73.8738 112.291 72.3836 112.291C70.8934 112.291 69.6807 113.457 69.6807 114.891C69.6807 115.161 69.747 115.431 69.8448 115.7C70.5265 116.113 71.1033 116.665 71.5365 117.321H71.5366Z" fill="#BBBE11"/>
<path d="M80.492 104.49C81.9822 104.49 83.195 103.324 83.195 101.89C83.195 100.457 81.9822 99.2903 80.492 99.2903C79.0018 99.2903 77.7891 100.457 77.7891 101.89C77.7891 102.518 78.0328 103.103 78.4612 103.576C78.9728 103.775 79.4338 104.061 79.8549 104.393C80.0842 104.453 80.2965 104.49 80.492 104.49V104.49Z" fill="#BBBE11"/>
<path d="M76.4354 110.992C77.9256 110.992 79.1383 109.825 79.1383 108.392C79.1383 106.958 77.9256 105.792 76.4354 105.792C74.9451 105.792 73.7324 106.958 73.7324 108.392C73.7324 109.02 73.9762 109.605 74.4045 110.077C74.9162 110.277 75.3771 110.562 75.7982 110.894C76.0275 110.954 76.2399 110.992 76.4354 110.992V110.992Z" fill="#BBBE11"/>
<path d="M144.013 116.192C144.013 116.909 144.619 117.492 145.365 117.492H156.176C156.922 117.492 157.528 116.909 157.528 116.192V113.592H144.013V116.192Z" fill="black"/>
<path d="M152.119 79.7918C152.119 79.0745 151.513 78.4918 150.767 78.4918C150.022 78.4918 149.416 79.0745 149.416 79.7918V81.0918H152.119V79.7918Z" fill="black"/>
<path d="M149.041 125.29H152.497L154.301 120.09H147.237L149.041 125.29Z" fill="black"/>
<path d="M151.112 35.5918H150.425C143.701 35.5918 138.047 40.0153 136.401 45.9918H165.136C163.491 40.0153 157.836 35.5918 151.112 35.5918H151.112Z" fill="black"/>
<path d="M149.419 131.792C149.419 135.376 146.387 138.292 142.661 138.292C138.935 138.292 135.904 135.376 135.904 131.792V79.7919C135.904 76.2077 132.873 73.2919 129.146 73.2919C125.42 73.2919 122.389 76.2076 122.389 79.7919V94.0919C122.389 96.2415 120.569 97.9919 118.335 97.9919C116.1 97.9919 114.28 96.2415 114.28 94.0919V64.7362C114.84 64.5447 115.359 64.2476 115.791 63.8332C116.556 63.0973 116.978 62.1177 116.978 61.0742C116.978 60.033 116.557 59.0522 115.791 58.3163C114.259 56.8422 111.588 56.8445 110.058 58.3163H110.057C109.292 59.0534 108.871 60.0318 108.871 61.0742C108.871 62.1165 109.292 63.0973 110.057 63.832C110.492 64.251 111.014 64.5482 111.577 64.7397V94.0918C111.577 97.6759 114.608 100.592 118.335 100.592C122.061 100.592 125.092 97.6761 125.092 94.0918V79.7918C125.092 77.6421 126.912 75.8918 129.146 75.8918C131.381 75.8918 133.201 77.6421 133.201 79.7918V131.792C133.201 136.808 137.446 140.892 142.661 140.892C147.876 140.892 152.121 136.808 152.121 131.792V128.325L149.418 128.542L149.419 131.792ZM113.879 61.993C113.367 62.4851 112.48 62.4875 111.967 61.9919C111.711 61.7469 111.572 61.4219 111.572 61.0737C111.572 60.7267 111.711 60.4005 111.967 60.1544H111.968C112.223 59.9084 112.561 59.7737 112.923 59.7737C113.284 59.7737 113.623 59.9084 113.879 60.1544C114.133 60.4005 114.274 60.7267 114.274 61.0737C114.276 61.4208 114.136 61.7458 113.879 61.993L113.879 61.993Z" fill="black"/>
<path d="M150.768 86.2934C151.514 86.2934 152.12 85.7107 152.12 84.9934V83.6934H149.417V84.9934C149.417 85.7107 150.023 86.2934 150.768 86.2934Z" fill="black"/>
<path d="M165.584 48.5918H135.954C135.931 48.9145 135.902 49.2337 135.902 49.5621C135.902 50.11 135.95 50.6532 136.016 51.1918H165.52C165.586 50.6521 165.634 50.1089 165.634 49.5621C165.636 49.2337 165.607 48.9145 165.584 48.5918H165.584Z" fill="black"/>
<path d="M144.013 68.0905H157.528V70.6905H144.013V68.0905Z" fill="black"/>
<path d="M137.971 56.7486L143.423 65.4911H158.11L163.563 56.7486C164.144 55.8165 164.584 54.8183 164.923 53.7911H136.609C136.951 54.8183 137.389 55.8165 137.97 56.7486H137.971ZM154.822 56.3911H157.525V58.9911H154.822V56.3911ZM149.416 56.3911H152.119V58.9911H149.416V56.3911ZM144.01 56.3911H146.713V58.9911H144.01V56.3911Z" fill="black"/>
<path d="M144.013 110.992H157.528V73.2902H144.013V110.992ZM152.122 104.492H149.419V101.892H152.122V104.492ZM152.122 99.2917H149.419V96.6917H152.122V99.2917ZM152.122 94.0917H149.419V91.4917H152.122V94.0917ZM146.716 79.7917C146.716 77.642 148.536 75.8916 150.771 75.8916C153.005 75.8916 154.825 77.642 154.825 79.7917V84.9917C154.825 87.1413 153.005 88.8917 150.771 88.8917C148.536 88.8917 146.716 87.1413 146.716 84.9917V79.7917Z" fill="black"/>
</svg>
