<svg width="22" height="22" viewBox="0 0 22 22" fill="none" xmlns="http://www.w3.org/2000/svg">
<path d="M10.9993 3.65844C9.56883 3.65844 8.40405 4.78393 8.40405 6.16311C8.40405 7.54229 9.56883 8.66778 10.9993 8.66778C12.4297 8.66778 13.5914 7.54229 13.5914 6.16311C13.5914 4.78393 12.4297 3.65844 10.9993 3.65844ZM10.9993 7.47673C10.2516 7.47673 9.63981 6.8886 9.63981 6.16613C9.63981 5.44366 10.2485 4.85553 10.9993 4.85553C11.747 4.85553 12.3556 5.44366 12.3556 6.16613C12.3556 6.8886 11.747 7.47673 10.9993 7.47673ZM21.8341 19.8089L20.3805 16.9699L18.9268 14.1308C18.6055 13.5039 17.9568 13.1159 17.2339 13.1159H14.3329L16.5913 9.24097C18.0002 6.82586 17.5645 3.77164 15.5378 1.8136C13.0353 -0.604533 8.9634 -0.604533 6.46087 1.8136C4.43415 3.77195 3.99847 6.82898 5.40736 9.24097L9.92438 16.9908C10.1437 17.367 10.5545 17.5997 10.9996 17.5997C11.4444 17.5997 11.8584 17.3668 12.0779 16.9908L13.638 14.313H17.2373C17.4876 14.313 17.71 14.4473 17.8211 14.6622L20.7284 20.3403C20.8024 20.4867 20.7408 20.609 20.7128 20.6538C20.682 20.6986 20.5955 20.8061 20.4286 20.8061L1.56975 20.8059C1.403 20.8059 1.31631 20.6984 1.28549 20.6536C1.25776 20.6088 1.1959 20.4865 1.26997 20.3401L4.17721 14.662C4.28852 14.4471 4.51092 14.3128 4.76103 14.3128H6.94229L6.24714 13.1187H4.76415C4.0413 13.1187 3.39249 13.5067 3.07116 14.1336L0.163928 19.8118C-0.0771001 20.2863 -0.0522711 20.8357 0.237992 21.2835C0.528466 21.7313 1.02583 22 1.57263 22H20.4314C20.9782 22 21.4756 21.7313 21.7661 21.2835C22.0508 20.8327 22.0782 20.2807 21.8341 19.8089ZM10.9993 16.3997L6.48226 8.64987C5.34539 6.70052 5.69755 4.23465 7.33508 2.65239C8.34532 1.67624 9.67397 1.18662 10.9993 1.18662C12.3247 1.18662 13.6533 1.67621 14.6636 2.65239C16.3011 4.2347 16.6501 6.70063 15.5133 8.64987L10.9993 16.3997Z" fill="white"/>
</svg>
