<svg width="159" height="42" viewBox="0 0 159 42" fill="none" xmlns="http://www.w3.org/2000/svg">
<path d="M92.1844 19.027C92.1846 15.871 94.4947 13.1905 97.6161 12.7243V12.7243C98.4646 12.589 99.1437 11.9133 98.9738 11.1022C98.8038 10.4264 97.9554 9.88556 96.9369 10.0209L90.1473 11.1022C89.2988 11.2375 88.7896 11.7779 88.7896 12.4541V18.4347C88.7896 19.3056 87.9629 19.8892 87.0921 19.8892V19.8892C84.2068 19.8892 82 21.6467 82 23.9446C82 26.2425 84.2068 28 87.0921 28C89.9774 28 92.1841 26.2425 92.1841 23.9446V23.8093L92.1844 19.027ZM87.0927 25.2961C86.0742 25.2961 85.3951 24.7552 85.3951 23.9441C85.3951 23.1331 86.0742 22.5922 87.0927 22.5922C88.1111 22.5922 88.7902 23.1331 88.7902 23.9441C88.7902 24.7557 88.1111 25.2961 87.0927 25.2961Z" fill="#50E3C2"/>
<path d="M37.5883 29H33.3695L41.0506 7.18182H45.9299L53.6217 29H49.4029L43.5755 11.6562H43.405L37.5883 29ZM37.7268 20.4453H49.2325V23.62H37.7268V20.4453ZM55.9916 29V12.6364H59.731V15.3636H59.9014C60.1997 14.419 60.7111 13.6911 61.4355 13.1797C62.1671 12.6612 63.0016 12.402 63.9391 12.402C64.1521 12.402 64.3901 12.4126 64.6528 12.4339C64.9227 12.4482 65.1465 12.473 65.324 12.5085V16.0561C65.1607 15.9993 64.9014 15.9496 64.5463 15.907C64.1983 15.8572 63.8609 15.8324 63.5342 15.8324C62.8311 15.8324 62.199 15.9851 61.6379 16.2905C61.084 16.5888 60.6472 17.0043 60.3276 17.5369C60.008 18.0696 59.8482 18.6839 59.8482 19.38V29H55.9916ZM76.6029 12.6364V15.6193H67.1959V12.6364H76.6029ZM69.5184 8.71591H73.3749V24.0781C73.3749 24.5966 73.453 24.9943 73.6093 25.2713C73.7726 25.5412 73.9857 25.7259 74.2485 25.8253C74.5113 25.9247 74.8025 25.9744 75.1221 25.9744C75.3635 25.9744 75.5837 25.9567 75.7826 25.9212C75.9885 25.8857 76.1448 25.8537 76.2513 25.8253L76.9012 28.8402C76.6952 28.9112 76.4005 28.9893 76.017 29.0746C75.6405 29.1598 75.1789 29.2095 74.632 29.2237C73.6661 29.2521 72.7961 29.1065 72.0219 28.7869C71.2478 28.4602 70.6334 27.956 70.1789 27.2741C69.7314 26.5923 69.5113 25.7401 69.5184 24.7173V8.71591ZM113.752 16.9616L110.237 17.3452C110.137 16.9901 109.963 16.6562 109.715 16.3438C109.473 16.0312 109.147 15.7791 108.735 15.5874C108.323 15.3956 107.818 15.2997 107.222 15.2997C106.419 15.2997 105.745 15.4737 105.198 15.8217C104.658 16.1697 104.392 16.6207 104.399 17.1747C104.392 17.6506 104.566 18.0376 104.921 18.3359C105.283 18.6342 105.879 18.8793 106.71 19.071L109.502 19.6676C111.05 20.0014 112.2 20.5305 112.953 21.255C113.713 21.9794 114.097 22.9276 114.104 24.0994C114.097 25.1293 113.795 26.0384 113.198 26.8267C112.609 27.608 111.789 28.2187 110.737 28.6591C109.686 29.0994 108.479 29.3196 107.115 29.3196C105.112 29.3196 103.5 28.9006 102.279 28.0625C101.057 27.2173 100.329 26.0419 100.095 24.5362L103.855 24.174C104.026 24.9126 104.388 25.4702 104.942 25.8466C105.496 26.223 106.217 26.4112 107.105 26.4112C108.021 26.4112 108.756 26.223 109.31 25.8466C109.871 25.4702 110.151 25.005 110.151 24.451C110.151 23.9822 109.97 23.5952 109.608 23.2898C109.253 22.9844 108.699 22.75 107.946 22.5866L105.155 22.0007C103.585 21.674 102.424 21.1236 101.671 20.3494C100.919 19.5682 100.546 18.581 100.553 17.3878C100.546 16.3793 100.819 15.5057 101.373 14.767C101.934 14.0213 102.712 13.446 103.706 13.0412C104.708 12.6293 105.862 12.4233 107.169 12.4233C109.086 12.4233 110.595 12.8317 111.696 13.6484C112.804 14.4652 113.49 15.5696 113.752 16.9616ZM125.122 12.6364V15.6193H115.715V12.6364H125.122ZM118.037 8.71591H121.894V24.0781C121.894 24.5966 121.972 24.9943 122.128 25.2713C122.292 25.5412 122.505 25.7259 122.767 25.8253C123.03 25.9247 123.321 25.9744 123.641 25.9744C123.882 25.9744 124.103 25.9567 124.301 25.9212C124.507 25.8857 124.664 25.8537 124.77 25.8253L125.42 28.8402C125.214 28.9112 124.919 28.9893 124.536 29.0746C124.159 29.1598 123.698 29.2095 123.151 29.2237C122.185 29.2521 121.315 29.1065 120.541 28.7869C119.767 28.4602 119.152 27.956 118.698 27.2741C118.25 26.5923 118.03 25.7401 118.037 24.7173V8.71591Z" fill="white"/>
</svg>
