<svg width="161" height="155" viewBox="0 0 161 155" fill="none" xmlns="http://www.w3.org/2000/svg">
<path d="M152.5 75.1779V3.16562C152.5 2.50713 152.228 1.87524 151.744 1.40965C151.26 0.944062 150.603 0.682434 149.918 0.682434H10.517C9.09147 0.682434 7.93555 1.79433 7.93555 3.16562V75.1779C7.93555 75.8364 8.20753 76.4683 8.69156 76.9338C9.17559 77.3994 9.83249 77.6611 10.517 77.6611H149.918C150.603 77.6611 151.26 77.3994 151.744 76.9338C152.228 76.4682 152.5 75.8364 152.5 75.1779ZM147.337 72.6947H13.0986V5.6488H147.337V72.6947Z" fill="black"/>
<path d="M51.822 50.346C51.8243 48.3706 52.6414 46.4771 54.0923 45.0802C55.5444 43.6845 57.5129 42.8986 59.5666 42.8964H80.2186C82.2723 42.8986 84.2407 43.6845 85.6929 45.0802C87.1438 46.477 87.9609 48.3705 87.9632 50.346V70.2115H93.1262V50.346C93.1228 47.0546 91.7606 43.8985 89.3416 41.5706C86.9214 39.2437 83.6404 37.9335 80.2187 37.9301H80.153C81.8598 35.7928 82.7898 33.1754 82.8002 30.4805C82.8002 26.0451 80.3397 21.9457 76.3465 19.7284C72.3532 17.5102 67.4322 17.5102 63.4389 19.7284C59.4457 21.9455 56.9852 26.0451 56.9852 30.4805C56.9956 33.1754 57.9256 35.7928 59.6324 37.9301H59.5667C56.1449 37.9334 52.8639 39.2437 50.4438 41.5706C48.0248 43.8985 46.6627 47.0546 46.6592 50.346V70.2115H51.8222L51.822 50.346ZM62.148 30.4805C62.148 28.505 62.9639 26.6093 64.416 25.2127C65.8681 23.8162 67.839 23.0311 69.8924 23.0311C71.9458 23.0311 73.9168 23.8159 75.3687 25.2127C76.8205 26.6095 77.6367 28.5053 77.6367 30.4805C77.6367 32.4557 76.8208 34.3517 75.3687 35.7483C73.9166 37.1448 71.9458 37.9299 69.8924 37.9299C67.8387 37.9277 65.8702 37.1417 64.4181 35.746C62.9671 34.3492 62.1501 32.4557 62.1478 30.4803L62.148 30.4805Z" fill="black"/>
<path d="M54.4028 50.3461H59.5658V70.2115H54.4028V50.3461Z" fill="black"/>
<path d="M80.2183 50.3461H85.3813V70.2115H80.2183V50.3461Z" fill="black"/>
<path d="M28.5882 44.138L31.4809 42.0506C31.8312 43.0205 32.487 43.8619 33.356 44.4583C34.2249 45.0548 35.2656 45.3762 36.3328 45.3796H38.9143C40.2834 45.3784 41.5961 44.8541 42.5641 43.924C43.531 42.9928 44.0762 41.7302 44.0773 40.4132V32.9637C44.0762 31.6468 43.531 30.3841 42.5641 29.453C41.5961 28.5229 40.2834 27.9985 38.9143 27.9974H36.3328C34.9637 27.9985 33.651 28.5229 32.683 29.453C31.7161 30.3841 31.171 31.6468 31.1698 32.9637V36.0678L25.4778 40.174V40.1751C24.1905 41.1174 23.4322 42.5818 23.4253 44.1383V70.2115H28.5883L28.5882 44.138ZM36.3327 32.9637H38.9143V40.4132L36.3327 40.4165V32.9637Z" fill="black"/>
<path d="M114.627 27.8119L114.044 35.3145C113.979 36.1479 114.37 36.9542 115.081 37.4515C115.792 37.9488 116.724 38.0673 117.549 37.766L125.395 34.9052L133.239 37.766C134.065 38.0673 134.997 37.9488 135.708 37.4515C136.419 36.9542 136.81 36.1479 136.745 35.3145L136.162 27.8119L141.532 22.0374C142.13 21.3955 142.327 20.5043 142.053 19.6904C141.778 18.8754 141.072 18.2563 140.192 18.0593L132.007 16.2183L127.555 9.78643C127.051 9.13684 126.248 8.75275 125.395 8.75275C124.541 8.75275 123.738 9.13684 123.234 9.78643L118.782 16.2183L110.597 18.0593C109.717 18.2563 109.011 18.8754 108.736 19.6904C108.462 20.5043 108.659 21.3955 109.257 22.0374L114.627 27.8119ZM120.978 20.7338H120.979C121.621 20.5902 122.18 20.2191 122.541 19.6968L125.394 15.5751L128.248 19.6968C128.608 20.218 129.167 20.5902 129.809 20.7338L134.823 21.8622L131.568 25.3636C131.112 25.8543 130.882 26.4985 130.933 27.1503L131.297 31.8325L126.325 30.0186C125.726 29.7988 125.063 29.7988 124.465 30.0186L119.492 31.8325L119.856 27.1503C119.907 26.4985 119.678 25.8544 119.221 25.3636L115.966 21.8622L120.978 20.7338Z" fill="#BBBE11"/>
<path d="M87.3605 100.208C84.856 99.668 82.2327 100.244 80.219 101.776C78.2053 100.244 75.582 99.6691 73.0776 100.208C71.4002 100.555 69.9049 101.457 68.8508 102.759C67.7979 104.061 67.2541 105.677 67.3163 107.327C67.3163 113.93 75.3437 119.751 78.7951 121.946C79.658 122.496 80.7801 122.496 81.6429 121.946C85.0944 119.75 93.1217 113.929 93.1217 107.327C93.184 105.677 92.6402 104.061 91.5873 102.759C90.5332 101.457 89.0378 100.555 87.3605 100.208ZM80.219 116.851C76.1707 114.003 72.4774 110.201 72.4774 107.326V107.327C72.3415 106.244 73.1041 105.247 74.2193 105.051C75.6927 104.737 77.2018 105.42 77.8919 106.711C78.3204 107.574 79.2259 108.123 80.219 108.123C81.212 108.123 82.1175 107.574 82.5461 106.711C83.2246 105.408 84.743 104.722 86.2187 105.051C87.3338 105.247 88.0965 106.244 87.9605 107.327C87.9605 110.201 84.2673 114.003 80.2189 116.851L80.219 116.851Z" fill="#9500F6"/>
<path d="M98.2894 90.077H62.1483C60.7792 90.0781 59.4666 90.6024 58.4985 91.5324C57.5316 92.4635 56.9865 93.726 56.9854 95.0428V127.321C56.9865 128.638 57.5316 129.9 58.4985 130.831C59.4666 131.761 60.7793 132.286 62.1483 132.287H77.6315L77.5796 154.628L82.7426 154.64L82.7945 132.287H98.2894C99.6585 132.286 100.971 131.761 101.939 130.831C102.906 129.9 103.451 128.638 103.452 127.321V95.0428C103.451 93.726 102.906 92.4635 101.939 91.5324C100.971 90.6024 99.6585 90.0781 98.2894 90.077V90.077ZM62.1483 127.321V95.0429H98.2894L98.2929 127.321H62.1483Z" fill="black"/>
<path d="M131.849 82.6274H137.012V87.5938H131.849V82.6274Z" fill="#BBBE11"/>
<path d="M131.849 92.5602H137.012V97.5265H131.849V92.5602Z" fill="#BBBE11"/>
<path d="M137.012 87.5938H142.175V92.5601H137.012V87.5938Z" fill="#BBBE11"/>
<path d="M126.686 87.5938H131.849V92.5601H126.686V87.5938Z" fill="#BBBE11"/>
<path d="M20.8438 82.6274H26.0068V87.5938H20.8438V82.6274Z" fill="#BBBE11"/>
<path d="M20.8438 92.5602H26.0068V97.5265H20.8438V92.5602Z" fill="#BBBE11"/>
<path d="M26.0073 87.5938H31.1703V92.5601H26.0073V87.5938Z" fill="#BBBE11"/>
<path d="M15.6812 87.5938H20.8442V92.5601H15.6812V87.5938Z" fill="#BBBE11"/>
<path d="M5.60531 136.952C5.62491 134.981 6.45927 133.099 7.9252 131.718C9.39113 130.338 11.3688 129.573 13.4224 129.592L18.953 129.644C20.6667 129.652 22.3724 129.434 24.0227 128.996L39.6143 124.784C40.7276 124.483 41.4963 123.509 41.4963 122.4V104.987L46.6533 105.035L46.5888 128.135L33.2123 132.387C32.167 132.718 31.4571 133.65 31.4421 134.706L31.169 154.574L36.332 154.64L36.582 136.536L49.9768 132.28V132.278C51.0302 131.943 51.7436 130.999 51.7459 129.934L51.8219 102.588C51.8254 101.227 50.6844 100.118 49.2658 100.105L38.9398 100.01C38.2518 100.006 37.5892 100.264 37.0982 100.726C36.6084 101.192 36.333 101.826 36.333 102.487V120.524L30.5903 122.075C32.2706 118.271 31.8614 113.914 29.5012 110.459C27.141 107.004 23.1399 104.907 18.8354 104.868H18.7075C15.3079 104.873 12.0464 106.162 9.6307 108.458C7.21502 110.754 5.8402 113.872 5.80214 117.135V117.136C5.78255 120.176 6.93847 123.115 9.04508 125.385C6.5454 126.213 4.37539 127.764 2.83447 129.826C1.29248 131.887 0.456963 134.358 0.441976 136.895L0.191895 154.287L5.35486 154.355L5.60531 136.952ZM13.2875 111.948C15.1291 110.214 17.7498 109.474 20.2761 109.975C22.8034 110.475 24.9045 112.151 25.8804 114.443C26.8554 116.735 26.5777 119.343 25.1394 121.397C23.7012 123.453 21.2902 124.685 18.7099 124.685H18.6361C16.5813 124.667 14.6199 123.866 13.1817 122.458C11.7423 121.051 10.9459 119.153 10.9655 117.182C10.9863 115.211 11.8206 113.328 13.2877 111.948L13.2875 111.948Z" fill="#9500F6"/>
<path d="M151.394 125.382C153.5 123.113 154.655 120.174 154.635 117.136V117.135C154.598 113.872 153.223 110.755 150.808 108.458C148.392 106.162 145.131 104.873 141.731 104.868H141.604C137.296 104.902 133.291 106.997 130.929 110.454C128.567 113.911 128.16 118.271 129.845 122.075L124.104 120.524V102.487C124.104 101.826 123.828 101.192 123.339 100.726C122.83 100.288 122.179 100.035 121.497 100.01L111.171 100.105C109.752 100.118 108.611 101.227 108.615 102.588L108.691 129.933V129.934C108.693 130.999 109.406 131.943 110.46 132.279L123.855 136.536L124.105 154.64L129.268 154.574L128.995 134.706C128.98 133.65 128.27 132.718 127.225 132.387L113.848 128.136L113.783 105.036L118.94 104.987V122.4C118.94 123.509 119.709 124.483 120.822 124.784L136.415 128.998V128.997C138.064 129.44 139.771 129.657 141.485 129.644L147.013 129.592C149.075 129.532 151.069 130.303 152.512 131.718C153.985 133.099 154.82 134.987 154.832 136.963L155.082 154.354L160.245 154.287L159.995 136.905C159.981 134.366 159.146 131.894 157.606 129.831C156.065 127.766 153.895 126.212 151.394 125.381L151.394 125.382ZM136.198 112.051H136.199C137.634 110.638 139.598 109.837 141.653 109.823H141.73C144.133 109.824 146.399 110.896 147.864 112.724C149.33 114.551 149.828 116.929 149.213 119.158C148.597 121.387 146.939 123.217 144.723 124.108C142.506 125 139.985 124.854 137.895 123.714C135.807 122.574 134.388 120.567 134.056 118.283C133.725 115.999 134.515 113.696 136.199 112.05L136.198 112.051Z" fill="#9500F6"/>
</svg>
