<svg width="26" height="34" viewBox="0 0 26 34" fill="none" xmlns="http://www.w3.org/2000/svg">
<path d="M15.5174 13.4975C15.5176 9.63897 18.2719 6.33038 22.0664 5.63055L23.4871 5.36852C24.7321 5.12327 25.7286 3.89869 25.4793 2.42887C25.2299 1.20429 23.985 0.224128 22.4906 0.469379L12.5282 2.42887C11.2832 2.67412 10.536 3.65344 10.536 4.87886V16.2911C10.536 17.5487 9.30278 18.3525 8.04522 18.3525V18.3525C3.81159 18.3525 0.573608 21.5374 0.573608 25.7017C0.573608 29.8659 3.81159 33.0508 8.04522 33.0508C12.2789 33.0508 15.5168 29.8659 15.5168 25.7017V25.4564L15.5174 13.4975ZM8.04608 28.1508C6.55175 28.1508 5.55525 27.1707 5.55525 25.7008C5.55525 24.231 6.55175 23.2508 8.04608 23.2508C9.5404 23.2508 10.5369 24.231 10.5369 25.7008C10.5369 27.1715 9.5404 28.1508 8.04608 28.1508Z" fill="#50E3C2"/>
</svg>
